<?xml version="1.0" standalone="no"?><!DOCTYPE svg PUBLIC "-//W3C//DTD SVG 1.1//EN" "http://www.w3.org/Graphics/SVG/1.1/DTD/svg11.dtd"><svg class="icon" width="200px" height="200.00px" viewBox="0 0 1024 1024" version="1.1" xmlns="http://www.w3.org/2000/svg"><path fill="#333333" d="M512 51.2c254.1056 0 460.8 206.7456 460.8 460.8s-206.6944 460.8-460.8 460.8-460.8-206.7456-460.8-460.8S257.8944 51.2 512 51.2M512 0C229.2224 0 0 229.2224 0 512s229.2224 512 512 512 512-229.2224 512-512S794.7776 0 512 0L512 0zM793.6 486.4l-256 0 0-256C537.6 216.2688 526.1312 204.8 512 204.8 497.8688 204.8 486.4 216.2688 486.4 230.4l0 256-256 0C216.2688 486.4 204.8 497.8688 204.8 512s11.4688 25.6 25.6 25.6l256 0 0 256c0 14.1312 11.4688 25.6 25.6 25.6 14.1312 0 25.6-11.4688 25.6-25.6l0-256 256 0c14.1312 0 25.6-11.4688 25.6-25.6S807.7312 486.4 793.6 486.4z" /></svg>