<?xml version="1.0" standalone="no"?><!DOCTYPE svg PUBLIC "-//W3C//DTD SVG 1.1//EN" "http://www.w3.org/Graphics/SVG/1.1/DTD/svg11.dtd"><svg t="1557022792699" class="icon" style="" viewBox="0 0 1024 1024" version="1.1" xmlns="http://www.w3.org/2000/svg" p-id="10563" xmlns:xlink="http://www.w3.org/1999/xlink" width="200" height="200"><defs><style type="text/css"></style></defs><path d="M855.168 394.752v0.128H192a64 64 0 0 0-60.928 44.288l-20.096 62.272v175.04l59.904-184.704a57.28 57.28 0 0 1 54.528-39.68l687.104-0.064c31.552 0.064 57.088 25.6 57.088 57.216l-117.184 360.96a57.28 57.28 0 0 1-54.528 39.744H110.976a57.28 57.28 0 0 1-57.28-57.216V165.824c0-31.616 25.664-57.28 57.28-57.28h286.208c31.68 0 57.216 25.664 57.216 57.28 0 31.552 25.664 57.216 57.28 57.216h286.272c31.616 0 57.216 25.6 57.216 57.216v114.496z" p-id="10564"></path></svg>