<?xml version="1.0" standalone="no"?><!DOCTYPE svg PUBLIC "-//W3C//DTD SVG 1.1//EN" "http://www.w3.org/Graphics/SVG/1.1/DTD/svg11.dtd"><svg t="1557022799618" class="icon" style="" viewBox="0 0 1024 1024" version="1.1" xmlns="http://www.w3.org/2000/svg" p-id="10688" xmlns:xlink="http://www.w3.org/1999/xlink" width="200" height="200"><defs><style type="text/css"></style></defs><path d="M110.976 422.4v29.632H798.08c31.616 0.064 57.088 25.6 57.088 57.216l-2.752 360.96a57.28 57.28 0 0 1-54.528 39.744H110.976a57.28 57.28 0 0 1-57.28-57.216V165.824c0-31.616 25.664-57.28 57.28-57.28h286.208c31.68 0 57.216 25.664 57.216 57.28 0 31.552 25.664 57.216 57.28 57.216h286.272c31.616 0 57.216 25.6 57.216 57.216v242.496h-57.088l-0.128-13.12V422.4H110.976z" p-id="10689"></path></svg>