<?xml version="1.0" standalone="no"?><!DOCTYPE svg PUBLIC "-//W3C//DTD SVG 1.1//EN" "http://www.w3.org/Graphics/SVG/1.1/DTD/svg11.dtd"><svg t="1556332283968" class="icon" style="" viewBox="0 0 1024 1024" version="1.1" xmlns="http://www.w3.org/2000/svg" p-id="4010" xmlns:xlink="http://www.w3.org/1999/xlink" width="200" height="200"><defs><style type="text/css"></style></defs><path d="M888.08 881.89A385.81 385.81 0 0 1 896 960h64a447.3 447.3 0 0 0-24.54-146.53 256.52 256.52 0 0 1-47.38 68.42zM536.42 510.46A195.07 195.07 0 0 1 512 512a192 192 0 1 1 137.69-58.21 257.16 257.16 0 0 1 83.1-4.17A254.74 254.74 0 0 0 768 320c0-141.39-114.62-256-256-256S256 178.61 256 320a255.76 255.76 0 0 0 116 214.32C193.13 593.12 64 761.48 64 960h64a383.61 383.61 0 0 1 353.58-382.82 257.16 257.16 0 0 1 54.84-66.72z" p-id="4011"></path><path d="M732.79 449.62a257.16 257.16 0 0 0-83.1 4.17A255.93 255.93 0 0 0 448 704c0 141.38 114.62 256 256 256a255.86 255.86 0 0 0 256-256c0-131.65-99.38-240.07-227.21-254.38zM866.5 710.25a47.8 47.8 0 0 1-20.36-4.53l-25.6 25.6-19.33 19.33a48 48 0 1 1-82.44 0l-71.1-71.1a47.84 47.84 0 0 1-21.32 0l-43.21 43.21a48 48 0 1 1-24.34-20.91l40-40a48 48 0 1 1 76.38 0l68.33 68.33a48.2 48.2 0 0 1 32.93 0l23.82-23.82 23.07-23.07a48 48 0 1 1 43.16 27z" p-id="4012"></path><path d="M704 448c-141.38 0-256 114.62-256 256s114.62 256 256 256 256-114.62 256-256-114.62-256-256-256z m162.5 262.25a47.8 47.8 0 0 1-20.36-4.53l-44.93 44.93a48 48 0 1 1-82.44 0l-71.1-71.1a47.84 47.84 0 0 1-21.32 0l-43.21 43.21a48 48 0 1 1-24.34-20.91l40-40a48 48 0 1 1 76.38 0l68.33 68.33a48.2 48.2 0 0 1 32.93 0l46.88-46.88a48 48 0 1 1 43.16 27z" p-id="4013"></path></svg>