<?xml version="1.0" standalone="no"?><!DOCTYPE svg PUBLIC "-//W3C//DTD SVG 1.1//EN" "http://www.w3.org/Graphics/SVG/1.1/DTD/svg11.dtd"><svg t="1556332906333" class="icon" style="" viewBox="0 0 1074 1024" version="1.1" xmlns="http://www.w3.org/2000/svg" p-id="6447" xmlns:xlink="http://www.w3.org/1999/xlink" width="209.765625" height="200"><defs><style type="text/css"></style></defs><path d="M1065.64219 786.418231a28.879071 28.879071 0 0 1-40.904567 0l-128.972321-129.128787v337.518554a28.923775 28.923775 0 1 1-57.847551 0v-337.518554l-128.927617 129.195844a29.057889 29.057889 0 1 1-40.904567-40.971623l198.755959-199.1583 198.755959 199.1583a29.057889 29.057889 0 0 1 0.044705 40.904566z m-526.461888 23.93923a274.30647 274.30647 0 0 0 47.319654 154.476207c-27.984982 0.514101-57.489915 0.514101-87.710119 0.514101h-184.718764c-175.353183 0-313.758142 0-313.758142-92.806426v-18.395879a314.875753 314.875753 0 0 1 313.758142-315.166332h184.718764a312.305248 312.305248 0 0 1 160.04191 44.302104 274.932332 274.932332 0 0 0-119.740854 227.076225z m-132.07928-309.533572h-0.849385a250.344888 250.344888 0 0 1-0.715271-500.689776h0.80468a249.987252 249.987252 0 0 1 249.786082 249.56256v0.782328a249.875491 249.875491 0 0 1-249.026106 250.344888z" p-id="6448"></path></svg>