<?xml version="1.0" standalone="no"?><!DOCTYPE svg PUBLIC "-//W3C//DTD SVG 1.1//EN" "http://www.w3.org/Graphics/SVG/1.1/DTD/svg11.dtd"><svg t="1556333025722" class="icon" style="" viewBox="0 0 1024 1024" version="1.1" xmlns="http://www.w3.org/2000/svg" p-id="7199" xmlns:xlink="http://www.w3.org/1999/xlink" width="200" height="200"><defs><style type="text/css"></style></defs><path d="M323.687612 520.978489c-59.730383-58.824757-88.223321-129.757273-82.692351-212.724893 4.555759-68.331271 33.145911-126.742613 83.232656-173.493379 100.922551-94.202499 250.617921-92.710518 347.915921-12.307304 61.247946 50.610678 94.749968 116.189256 98.130971 195.642842 2.714831 63.783699-17.670451 139.617851-83.198887 202.346521 7.43432 3.838422 15.096836 7.03523 21.943778 11.478426 20.304442 13.175067 40.470737 26.578332 60.310597 40.435944 8.4126 5.874801 16.067954 12.886495 23.734564 19.74981 25.505907 22.828938 27.093055 59.633169 2.777253 83.645049-20.686135 20.429285-53.931307 21.255093-75.274404 2.367931-25.842575-22.870894-53.556777-42.935881-85.226057-57.133232-23.283286-10.434653-47.3801-17.911952-72.482825-22.981411-26.244734-5.299703-52.637848-5.822612-78.971609-4.436032-18.24248 0.957815-36.555567 4.501524-54.351885 8.867972-16.691147 4.095271-33.130561 9.875928-48.978505 16.568351-22.50455 9.502421-43.828204 21.585621-62.674435 37.259602-14.610766 12.150738-29.060873 24.688285-42.153052 38.416961-16.624632 17.433044-30.529317 37.161365-42.147936 58.357106-13.45136 24.538883-24.366967 50.160423-30.299073 77.552284-3.307326 15.272845-5.345752 30.850635-7.331989 46.369074-1.757017 13.722536-1.133823 27.909653-4.270257 41.256636-5.007037 21.310352-20.011776 35.147498-40.99467 39.766702-16.916275 3.723811-33.878598 1.203408-48.070832-11.024078-14.205537-12.238742-20.85498-27.081799-20.907169-46.112224-0.11154-40.626279 6.119371-80.059384 17.648962-118.945019 14.758122-49.771567 38.479383-94.700849 69.736271-136.032186 15.666818-20.716834 33.431414-39.418778 52.390207-56.897871 25.149796-23.181979 53.569056-42.113143 83.272565-59.039651C310.655807 526.569834 317.055564 524.082176 323.687612 520.978489zM505.296833 176.312588C419.560146 176.008666 357.120049 244.203838 353.445356 318.922586c-4.643764 94.458325 68.414159 156.982334 143.067416 160.507624 94.142124 4.442172 160.478971-67.824735 161.080675-151.293775 0.290619-40.572044-14.173814-76.748988-43.030026-105.968473C584.657298 191.883215 548.061822 176.479387 505.296833 176.312588z" p-id="7200"></path><path d="M735.587799 861.644285c2.982938 0 6.037507 0.3776 8.933463-0.128937 2.117221-0.370437 4.027733-1.910513 6.031367-2.929726-1.909489-1.040702-3.770883-2.846838-5.745864-2.974751-6.368034-0.416486-12.791327-0.034792-19.176758-0.301875-7.846712-0.329505-11.668761-3.936659-12.495592-11.707646-0.333598-3.151783-0.333598-6.412037 0.052189-9.56075 0.916882-7.490601 4.041036-10.033517 11.585873-11.094686 2.291183-0.321318 5.89936-1.962701 6.202259-3.51915 0.645706-3.356444 0.048095-6.949272-4.465708-8.676613-9.017374-3.447519-11.905144-10.758018-9.676383-22.705118 1.545192-8.302083 5.976108-11.399631 16.347317-11.423167 2.559289-0.00307 5.117554-0.052189 7.676843 0.011256 4.825912 0.11768 7.724938-0.208754 9.888208-6.513344 3.603061-10.504238 14.298658-10.725272 23.831778-10.677177 10.735505 0.058328 16.110933 3.220345 17.784038 11.037381 1.096984 5.118578 3.6399 6.637164 8.344039 6.16542 1.686409-0.165776 3.408633 0.011256 5.113461-0.026606 6.30152-0.149403 12.822027-0.347924 16.041348 6.502088 3.756557 7.996115 3.257184 16.219403-0.815575 23.936155-1.044796 1.986237-4.226255 2.736321-5.844102 4.563946-1.898233 2.149966-3.784186 4.719488-4.387937 7.393387-0.223081 0.981351 3.290953 2.721994 4.988618 4.241604 2.403746 2.157129 6.076392 4.077875 6.753821 6.728238 1.278109 5.003967 1.382487 10.507308 0.916882 15.709797-0.544399 6.123464-4.76349 9.315156-10.901281 9.53926-5.749958 0.211824-11.524474-0.030699-17.256012 0.361227-1.694595 0.11768-3.288906 1.714038-4.926196 2.631944 1.677199 1.137916 3.276626 3.090385 5.0449 3.260254 4.860704 0.464581 9.812483-0.055259 14.696724 0.252757 6.062066 0.381693 10.989285 3.302209 12.257162 9.402137 1.458211 7.02909 2.690272 14.56574-3.190669 20.49887-3.125177 3.158946-6.228865 1.12052-9.017374-1.151219-4.114714-3.350304-8.107655-6.877641-12.423961-9.955746-4.830005-3.450589-10.214642-3.405563-14.985296-0.110517-3.979638 2.746554-7.843642 5.956665-10.899234 9.668197-6.64842 8.080026-5.854335 15.924691 1.750877 23.186072 4.621251 4.411473 9.312086 8.749268 14.071484 13.011338 2.933819 2.631944 3.187599 5.395894 2.083451 9.151427-1.146103 3.894703-1.746784 8.198729-1.402953 12.224416 0.479931 5.603625-1.929955 9.526981-6.871501 9.588379-12.234649 0.159636-24.554232-0.267083-36.678364-1.759063-3.0208-0.373507-6.593162-5.288446-7.812943-8.836249-1.451048-4.220115-1.121544-9.258874-0.701988-13.867846 0.781806-8.562003 3.5038-10.781554 12.266371-11.274788 10.906397-0.618077 17.368576-11.114129 11.495822-20.324908-3.746324-5.877871-9.381671-10.972912-15.141862-15.039531-5.738701-4.047176-11.638061-1.352811-16.96744 2.759857-2.635013 2.035356-7.579629 4.938476-8.943696 3.948939-2.827395-2.038426-4.600785-6.248308-5.583159-9.893324-0.847298-3.13848-0.406253-6.807033 0.184195-10.112312 1.443885-8.104585 5.367241-11.139711 13.651928-11.205203C730.043526 861.626889 732.81464 861.644285 735.587799 861.644285zM770.198062 806.947546c-1.704828 1.962701-4.683672 3.807722-4.88424 5.912663-0.76441 8.076956 1.680269 12.20702 6.130627 12.317537 5.559623 0.1361 7.197936-2.62785 7.364735-11.377118C778.912537 808.414967 775.357572 808.306496 770.198062 806.947546z" p-id="7201"></path><path d="M821.82079 816.765145c8.885368-10.060123 11.114129-21.267373 7.189749-33.513278-1.839905-5.753027 2.39249-6.259564 5.610788-7.005554 9.114588-2.115174 18.381649-3.564175 27.520797-5.604648 7.67582-1.713015 15.242146-3.921309 22.873963-5.846148 11.305487-2.850931 18.575054 1.431605 22.995737 13.468756 4.479011 12.20395 1.556449 23.557532-8.610098 27.167756-11.142781 3.956102-22.957875 6.040576-34.495652 8.856715-2.058892 0.502443-4.486174 0.097214-6.249331 1.033539-1.857301 0.984421-3.121084 3.083222-4.641717 4.691859 1.757017 1.088798 3.492544 3.083222 5.27412 3.125177 11.932774 0.283456 23.873734 0.113587 35.8106 0.162706 12.325723 0.048095 17.10661 4.500501 17.418718 16.798595 0.121773 4.623297 0.104377 9.602705-1.482771 13.812587-1.25662 3.349281-4.592598 7.518231-7.714705 8.228405-5.586229 1.269923-5.9055 4.202719-5.885034 8.593725 0.094144 22.1423 0.052189 44.287669 0.037862 66.430992-0.010233 17.873066-4.13518 21.902846-21.874193 21.421892-13.126972-0.358157-16.804734-3.817955-16.894785-16.864086-0.159636-22.99676-0.052189-45.991474-0.056282-68.987211 0-1.490957 0.358157-3.106758-0.104377-4.439102-0.534166-1.532913-1.798972-2.808976-2.743484-4.196579-1.027399 1.363044-2.826372 2.653433-2.958378 4.099365-0.76748 8.252964-0.326435 16.694217-1.819438 24.792663-2.76702 14.994506-6.485715 29.824259-10.061147 44.663222-0.729617 3.035126-2.365884 5.930059-3.950985 8.676613-8.097422 13.96813-27.692712 16.638959-38.790468 4.78498-2.433422-2.604314-3.544733-7.850805-2.88777-11.449773 0.441045-2.438539 4.76349-5.111414 7.828292-5.961782 9.877975-2.739391 16.291035-9.3039 20.176528-18.050098 1.36509-3.068895-0.045025-7.737218-1.118474-11.405771-0.940418-3.218298-1.995447-5.693676 0.795109-8.652054 8.592702-9.109472 10.096962-20.147876 4.075829-30.878265-2.0241-3.606131-1.992377-6.182816 0.184195-9.79611C833.750493 844.175425 831.348794 828.347948 821.82079 816.765145z" p-id="7202"></path><path d="M791.078625 885.402385c1.27504 0.540306 4.024663 1.022283 5.822612 2.593058 6.054903 5.29561 12.20088 10.601452 17.485233 16.628726 4.483104 5.111414 3.216251 10.286274-2.506077 16.337083-5.858428 6.194072-10.617825 7.611352-16.131399 3.25309-6.816243-5.385661-13.187347-11.444657-19.073404-17.835204-1.686409-1.834788-1.957585-6.078439-1.242294-8.78406C777.024537 891.599528 784.871249 885.551788 791.078625 885.402385z" p-id="7203"></path><path d="M711.530894 921.142377c2.086521-4.359284 2.922563-7.580652 4.860704-9.876951 5.055133-5.991458 10.513448-11.658528 15.97074-17.300015 3.180436-3.284813 7.344269-4.210905 10.937097-1.310855 4.044106 3.260254 8.159844 6.942109 10.794857 11.31265 3.447519 5.725398 0.23536 10.385535-6.385431 10.736529-11.954263 0.630357-15.523555 3.475148-17.798365 15.632025-1.062192 5.662977-4.02364 5.931083-7.356548 3.031033C718.443327 929.794431 715.168748 925.265278 711.530894 921.142377z" p-id="7204"></path></svg>